<svg width="443" height="444" xmlns="http://www.w3.org/2000/svg" xmlns:xlink="http://www.w3.org/1999/xlink" xml:space="preserve" overflow="hidden"><defs><clipPath id="clip0"><rect x="1942" y="909" width="443" height="444"/></clipPath></defs><g clip-path="url(#clip0)" transform="translate(-1942 -909)"><path d="M1942 1131C1942 1008.39 2041.17 909 2163.5 909 2285.83 909 2385 1008.39 2385 1131 2385 1253.61 2285.83 1353 2163.5 1353 2041.17 1353 1942 1253.61 1942 1131Z" fill="#C5FFC5" fill-rule="evenodd"/><path d="M1998 1127.5C1998 1036.1 2072.1 962 2163.5 962 2254.9 962 2329 1036.1 2329 1127.5 2329 1218.9 2254.9 1293 2163.5 1293 2072.1 1293 1998 1218.9 1998 1127.5Z" fill="#81FF81" fill-rule="evenodd"/><path d="M2054 1128C2054 1067.25 2103.02 1018 2163.5 1018 2223.98 1018 2273 1067.25 2273 1128 2273 1188.75 2223.98 1238 2163.5 1238 2103.02 1238 2054 1188.75 2054 1128Z" fill="#00FF00" fill-rule="evenodd"/><path d="M2157 1109 2166.54 1294.72 2208.25 1254.32 2242.2 1329 2271.43 1314.6 2236.85 1240.64 2293 1234.34 2157 1109Z" stroke="#000000" stroke-width="13.75" stroke-miterlimit="8" fill="#FFFFFF" fill-rule="evenodd"/></g></svg>